%FSLAX42Y42*%
%MOMM*%
G71*
G01*
G75*
G04 Layer_Physical_Order=1*
%ADD10C,1.70*%
%ADD11R,1.70X1.70*%
D10*
X3912Y3632D02*
D03*
Y3886D02*
D03*
X4623Y2261D02*
D03*
Y2515D02*
D03*
X4343Y1524D02*
D03*
X4597D02*
D03*
X1016Y2007D02*
D03*
Y1753D02*
D03*
X457Y406D02*
D03*
X4521Y610D02*
D03*
X356Y4420D02*
D03*
X406Y2108D02*
D03*
X686Y4115D02*
D03*
X1448D02*
D03*
X4674Y4293D02*
D03*
Y3531D02*
D03*
X3175Y1321D02*
D03*
X2413D02*
D03*
X1600Y3251D02*
D03*
X2362D02*
D03*
X3759Y1245D02*
D03*
Y2007D02*
D03*
X3200Y1956D02*
D03*
Y2718D02*
D03*
X991Y457D02*
D03*
X1753D02*
D03*
X1600Y3708D02*
D03*
X2362D02*
D03*
X356Y4039D02*
D03*
Y3277D02*
D03*
X3480Y4521D02*
D03*
X4242D02*
D03*
X1981Y4394D02*
D03*
Y4648D02*
D03*
X1143Y2896D02*
D03*
X889D02*
D03*
X2997Y3656D02*
D03*
X3046Y4521D02*
D03*
X3759Y2996D02*
D03*
X2845Y610D02*
D03*
X3099D02*
D03*
X2311Y2515D02*
D03*
X2057D02*
D03*
X1803D02*
D03*
X2565Y1753D02*
D03*
X2311D02*
D03*
X2057D02*
D03*
X1803D02*
D03*
X2223Y2756D02*
D03*
X1905D02*
D03*
D11*
X457Y660D02*
D03*
X4521Y356D02*
D03*
X356Y4674D02*
D03*
X406Y1854D02*
D03*
X2997Y3456D02*
D03*
X2846Y4521D02*
D03*
X3759Y2796D02*
D03*
X2591Y610D02*
D03*
X2565Y2515D02*
D03*
M02*
